<svg id="icon-2" xmlns="http://www.w3.org/2000/svg" width="79.917" height="79.917" viewBox="0 0 79.917 79.917">
  <path id="Path_7167" data-name="Path 7167" d="M249.671,100.009a1.171,1.171,0,0,0,1.171-1.171V97.12a1.171,1.171,0,1,0-2.341,0v1.718A1.171,1.171,0,0,0,249.671,100.009Z" transform="translate(-209.712 -80.973)" fill="#06aef4"/>
  <path id="Path_7168" data-name="Path 7168" d="M351.393,141.142a1.17,1.17,0,0,0-1.655,0l-1.215,1.215a1.171,1.171,0,0,0,1.655,1.656l1.215-1.215A1.171,1.171,0,0,0,351.393,141.142Z" transform="translate(-293.833 -118.822)" fill="#06aef4"/>
  <path id="Path_7169" data-name="Path 7169" d="M390.4,248.5a1.171,1.171,0,1,0,0,2.341h1.718a1.171,1.171,0,1,0,0-2.341Z" transform="translate(-328.475 -209.713)" fill="#06aef4"/>
  <path id="Path_7170" data-name="Path 7170" d="M349.6,348.523a1.171,1.171,0,0,0-1.656,1.656l1.215,1.215a1.171,1.171,0,1,0,1.656-1.656Z" transform="translate(-293.345 -293.834)" fill="#06aef4"/>
  <path id="Path_7171" data-name="Path 7171" d="M247.683,390.4v1.718a1.171,1.171,0,1,0,2.341,0V390.4a1.171,1.171,0,1,0-2.341,0Z" transform="translate(-209.023 -328.475)" fill="#06aef4"/>
  <path id="Path_7172" data-name="Path 7172" d="M141.778,347.945l-1.215,1.215a1.171,1.171,0,0,0,1.655,1.656l1.215-1.215a1.171,1.171,0,0,0-1.655-1.656Z" transform="translate(-118.334 -293.346)" fill="#06aef4"/>
  <path id="Path_7173" data-name="Path 7173" d="M97.119,247.684a1.171,1.171,0,1,0,0,2.341h1.718a1.171,1.171,0,1,0,0-2.341Z" transform="translate(-80.972 -209.024)" fill="#06aef4"/>
  <path id="Path_7174" data-name="Path 7174" d="M144.012,141.779l-1.215-1.215a1.171,1.171,0,1,0-1.656,1.656l1.215,1.215a1.171,1.171,0,0,0,1.656-1.655Z" transform="translate(-118.822 -118.335)" fill="#06aef4"/>
  <path id="Path_7175" data-name="Path 7175" d="M199.054,165.746l8.338,4.288a1.171,1.171,0,1,0,1.071-2.082l-8.336-4.286a4.294,4.294,0,0,0-3.04-4.98V146.753a1.171,1.171,0,1,0-2.341,0v11.932a4.311,4.311,0,0,0-2.961,2.961h-5.811a1.171,1.171,0,0,0,0,2.341h5.811a4.291,4.291,0,0,0,7.269,1.759Zm-3.137-.976a1.954,1.954,0,1,1,1.954-1.954A1.956,1.956,0,0,1,195.917,164.771Z" transform="translate(-155.959 -122.859)" fill="#06aef4"/>
  <path id="Path_7176" data-name="Path 7176" d="M116.478,85.08a1.171,1.171,0,0,0,1.078-1.257,31.4,31.4,0,1,0,0,4.859,1.171,1.171,0,0,0-2.335-.179,29.052,29.052,0,1,1,0-4.5A1.169,1.169,0,0,0,116.478,85.08Z" transform="translate(-46.295 -46.295)" fill="#06aef4"/>
  <path id="Path_7177" data-name="Path 7177" d="M164.831,11.7a39.97,39.97,0,0,0-49.8-5.4,1.171,1.171,0,1,0,1.264,1.971,37.611,37.611,0,1,1,9.363,67.689,1.171,1.171,0,0,0-.679,2.241,39.963,39.963,0,0,0,39.855-66.5Z" transform="translate(-96.618 0)" fill="#06aef4"/>
  <path id="Path_7178" data-name="Path 7178" d="M24.78,122.388a37.625,37.625,0,0,1-8.773-63.433,1.171,1.171,0,0,0-1.492-1.8,39.966,39.966,0,0,0,9.319,67.38,1.171,1.171,0,0,0,.946-2.142Z" transform="translate(0 -48.003)" fill="#06aef4"/>
</svg>
